<svg width="1200" height="650" viewBox="0 0 1200 650" fill="none" xmlns="http://www.w3.org/2000/svg">
<g clip-path="url(#clip0_6621_5642)">
<mask id="mask0_6621_5642" style="mask-type:alpha" maskUnits="userSpaceOnUse" x="0" y="-123" width="1200" height="777">
<g clip-path="url(#clip1_6621_5642)">
<path d="M1036.52 368.729L1033.01 381.886L1013.99 388.298L1008.3 381.628L1005.54 382.386L1010.7 402.274L1018.43 403.138L1028.73 407.033V410.929L1033.45 410.065L1040.33 400.561V392.785L1044.2 385.009L1048.5 385.873L1043.34 375.065L1042.55 368.107L1036.52 368.729Z" fill="#74788D"/>
<path d="M1144.42 404.942L1143.86 441.988L1149.2 441.7L1156.23 433.499L1162.14 433.787L1165.93 437.183L1167.19 447.642L1179.28 454.008L1182.37 452.872V449.052L1172.67 440.988L1167.89 429.952L1171.69 428.118L1168.88 422.04L1163.26 421.904L1161.85 415.401L1146.96 405.366L1144.42 404.942Z" fill="#74788D"/>
<path d="M58.6038 218.709L65.936 241.765L62.5203 243.674L62.8999 248.252L69.3516 253.209V262.38L77.3214 270.019L73.9058 247.494L69.3516 232.594L70.4901 222.286L74.2853 222.665L75.8033 226.106L74.2853 234.883L94.02 273.445V287.193L109.96 305.899L127.417 313.917L134.628 309.718L144.875 318.116L150.947 312.007L148.291 305.125L157.019 302.458L159.676 303.989L162.333 301.321H166.507L174.097 287.951L170.302 284.51L155.501 287.951L152.086 297.88L143.357 299.411L133.11 295.212L128.556 280.706L132.002 262.41L124.958 258.029L121.603 240.461L118.795 239.263L113.664 244.463L107.774 241.325L105.466 229.608L82.1336 227.167L70.0803 218.118L58.6038 218.709Z" fill="#74788D"/>
<path d="M635.89 94.7609L627.389 94.4578L622 97.7471L621.924 100.188L625.416 103.477L636.27 105.311L635.89 94.7609Z" fill="#74788D"/>
<path d="M569.262 221.832L563.068 219.755L537.292 224.59L531.675 228.85L535.106 246.539L524.859 246.949L518.696 256.847L504.016 260.363L504.062 267.564L552.412 304.474L560.655 305.171L588.147 283.722L585.399 280.266L580.238 279.569L577.141 274.385V252.936L575.076 250.859L575.425 245.327L569.93 239.794L569.247 233.913L571.646 232.185L570.613 225.955L569.262 221.832Z" fill="#74788D"/>
<path d="M530.415 229.092H512.881L509.45 236.702L501.541 240.506L495.014 258.15L482.292 265.76L464.425 295.151L481.958 294.803L482.641 286.162H487.105V274.4H502.574L502.923 259.181L517.709 255.725L523.902 245.69L533.527 245.342L530.415 229.092Z" fill="#74788D"/>
<path d="M464.546 296.364L467.856 300.684L467.173 319.359L471.985 315.903L475.416 315.205L480.228 316.933L485.723 324.543L490.885 321.087L515.978 320.738L509.784 278.887L516.434 278.856L504.046 269.382L504.061 275.537L488.38 275.552L488.304 287.299L483.795 287.284L483.218 295.955L464.546 296.364Z" fill="#74788D"/>
<path d="M472.472 317.07L466.491 321.405L465.124 323.831L464.699 326.256L466.9 327.832L474.248 327.726L478.969 326.453L479.5 328.772L479.075 331.834L483.584 334.047L484.525 335.108L490.506 335.32L490.719 332.683L485.254 326.135L479.166 317.904L475.386 316.327L472.472 317.07Z" fill="#74788D"/>
<path d="M467.568 329.227L467.371 330.909L477.876 330.758L478.407 329.196L478.18 327.62L475.159 328.848L467.568 329.227Z" fill="#74788D"/>
<path d="M467.417 332.077L469.299 336.639L470.347 333.82L483.114 335.154L477.588 332.319L467.417 332.077Z" fill="#74788D"/>
<path d="M470.165 338.61L472.29 342.809L478.256 337.685L478.316 336.109L471.288 335.093L470.165 338.61Z" fill="#74788D"/>
<path d="M472.927 343.779L477.542 350.873L483.553 345.658L489.716 345.385L494.847 352.191L499.204 355.056L500.844 351.873L502.301 351.054L502.195 344.051L499.295 335.745L490.4 336.73L479.394 335.851L479.333 338.67L472.927 343.779Z" fill="#74788D"/>
<path d="M478.255 351.646L486.832 359.922L492.95 352.51L489.124 346.522L483.856 347.053L478.255 351.646Z" fill="#74788D"/>
<path d="M487.729 360.831L504.397 371.957L504.002 363.529L498.962 357.602L494.044 353.252L487.729 360.831Z" fill="#74788D"/>
<path d="M505.793 372.291L512.29 367.698L520.366 366.288L528.609 368.062L524.404 361.711L523.174 357.83L524.404 346.355L517.041 346.704L513.702 343.521L506.688 343.703L503.349 344.233L503.698 351.994L501.937 352.707L499.827 356.587L505.261 362.938L505.793 372.291Z" fill="#74788D"/>
<path d="M486.649 325.437L491.325 322.239L517.314 322.087L511.303 280.342L518.164 280.145L551.364 305.444L555.827 306.08L554.142 320.147L533.269 322.042L517.162 334.047L514.233 342.263L503.044 342.733L500.191 334.532L491.613 335.138L491.947 332.455L486.649 325.437Z" fill="#74788D"/>
<path d="M533.906 323.072L539.432 322.633L548.495 335.426L540.085 341.762L533.998 340.201L525.815 340.307L524.495 345.097L517.633 345.43L515.75 342.869L518.179 335.078L533.906 323.072Z" fill="#74788D"/>
<path d="M549.543 334.775L553.414 334.684L556.906 329.454L562.766 328.408L569.005 332.213L582.318 332.592L592.61 328.408L596.481 325.089L596.77 320.723L603.95 313.493L605.848 297.531L601.127 287.648L589.043 284.707L561.08 306.474L557.118 306.095L555.418 321.208L541.148 322.633L549.543 334.775Z" fill="#74788D"/>
<path d="M524.419 357.588L526.119 361.574L530.552 368.517L533.011 368.426L539.721 364.621L539.25 342.96L534.059 341.444L526.787 341.641L524.419 357.588Z" fill="#74788D"/>
<path d="M540.936 363.954L545.004 361.574L544.913 345.886L542.271 341.611L540.571 343.036L540.936 363.954Z" fill="#74788D"/>
<path d="M546.234 361.286H549.452L549.634 352.161L553.703 346.265L553.521 336.003L549.832 335.912L543.501 340.853L546.143 345.886L546.234 361.286Z" fill="#74788D"/>
<path d="M550.576 361.104L556.526 361.392L563.707 369.381L567.198 370.336L569.931 369.002L574.09 368.426L575.502 362.635L581.165 358.921L587.298 358.633L598.531 338.003L598.349 333.35L593.157 329.363L582.774 333.926L568.883 333.729L562.265 329.545L557.544 330.591L555.084 334.866L554.902 346.931L550.94 352.54L550.576 361.104Z" fill="#74788D"/>
<path d="M570.826 221.589L579.22 218.209L581.983 219.997L582.089 222.18L580.799 223.863L580.996 226.849L582.287 227.546V232.912L580.799 235.398L580.996 236.99L586.628 238.975L582.089 246.024L580.313 245.918L580.01 251.587L578.036 251.89L576.351 250.405L576.746 244.644L571.22 239.279L570.522 234.61L573.194 232.518L570.826 221.589Z" fill="#74788D"/>
<path d="M578.628 252.966L580.996 252.572L581.695 247.115H582.879L587.721 239.172L599.668 242.644L602.932 247.706L614.682 253.072L620.8 250.495L620.208 247.919L617.536 245.342L617.84 243.553L622.181 239.885H630.773L634.037 244.25L640.944 245.251L641.84 301.169L636.709 300.972L605.71 284.874L602.355 286.769L589.619 283.586L586.158 279.023L581.118 278.326L578.552 273.763L578.628 252.966Z" fill="#74788D"/>
<path d="M642.205 245.433L646.258 245.539L654.152 247.722L657.901 247.828L662.547 243.947H664.717L668.664 246.13H673.659L674.554 246.069L677.712 255.134L678.608 258.059L679.443 262.44L677.955 263.532L675.389 262.243L672.429 252.603L669.757 252.405L669.56 255.68L671.336 261.349L685.56 278.932L685.864 286.481L681.72 291.256L642.797 290.816L642.205 245.433Z" fill="#74788D"/>
<path d="M597.97 325.68L598.167 321.208L605.362 314.22L607.29 297.061L602.493 287.906L605.848 286.193L638.335 303.094L638.137 319.677L632.414 324.543V333.092L636.164 340.338H629.545L618.585 351.16L618.296 354.435L610.205 354.329L610.099 355.814L605.484 355.208L602.326 349.251L599.958 348.083L600.262 346.264L603.237 343.991V333.35L599.123 332.713L594.159 329.03L597.97 325.68Z" fill="#74788D"/>
<path d="M683.426 347.416L678.957 339.923L678.489 334.473L677.416 334.677L677.125 336.356L671.269 344.897L666.596 342.671L661.936 346.57L652.294 346.016L648.027 342.611L641.904 345.741L641.673 347.825L639.805 348.947L658.508 368.167L668.696 368.744L670.181 371.003L684.757 371.261L684.875 368.001L686.121 365.742L690.98 365.121L684.923 356.345H680.461L679.322 350.113L682.904 348.538L683.426 347.416Z" fill="#74788D"/>
<path d="M687.853 287.192L682.252 292.832L643.085 292.483L643.509 302.442L639.776 302.336L639.503 320.268L633.84 325.135L633.612 332.622L637.698 340.672L642.175 343.31L642.106 343.938L648.208 340.817L652.863 344.53L661.423 345.021L666.369 340.885L670.751 342.97L675.685 335.772L676.1 333.383L679.859 332.67L680.443 339.446L684.203 345.752L693.317 326.18V314.282L699.938 306.489L687.853 287.192Z" fill="#74788D"/>
<path d="M575.244 368.547L580.132 373.034L579.783 379.976L606.592 379.355L608.778 376.899L601.096 368.638L599.958 365.652L604.846 356.511L601.521 350.448L598.728 348.948V345.87L601.961 343.763L602.144 334.183L599.578 333.896L599.533 338.928L588.269 359.922L581.377 360.271L576.655 363.514L575.244 368.547Z" fill="#74788D"/>
<path d="M695.003 323.709L694.624 314.781L700.635 307.778L702.259 309.021L705.22 318.904L719.428 329.469L716.848 332.637L706.449 323.709H695.003Z" fill="#74788D"/>
<path d="M717.425 334.077L716.56 339.17L722.571 339.079L722.662 331.591L720.461 330.242L717.425 334.077Z" fill="#74788D"/>
<path d="M684.042 349.569L695.093 325.013L706.069 325.073L715.8 333.517L715.117 340.474H722.661L723.436 344.658L735.641 351.949L743.17 352.328L728.855 367.683L709.196 373.731H704.323L695.64 366.334L692.209 364.894L685.56 355.117L681.173 355.177L680.657 350.691L684.042 349.569Z" fill="#74788D"/>
<path d="M723.892 339.383L730.086 343.597L731.923 343.506L747.301 338.231L749.046 343.854L747.817 348.599L744.492 351.236L736.188 350.706L724.302 343.415L723.892 339.383Z" fill="#74788D"/>
<path d="M760.143 331.212L763.377 334.82L767.749 332.183L769.327 331.652L767.324 329.712L763.483 330.849L760.143 331.212Z" fill="#74788D"/>
<path d="M748.53 337.882L755.164 335.336L757.517 336.745L757.258 342.627L751.141 360.028L718.032 395.437L714.191 392.8L713.933 377.854L718.912 372.139L729.478 368.88L744.977 352.54L749.031 348.932L750.169 343.657L748.53 337.882Z" fill="#74788D"/>
<path d="M602.326 368.198L609.4 375.838L612.193 372.231L616.641 372.412L617.598 368.896L621.97 366.167L631.048 372.412L636.285 367.228L656.612 368.123L637.758 348.69L640.293 347.114L640.642 343.688L636.361 341.672H630.076L619.951 351.691L619.602 355.814L611.571 355.557L611.313 357.315L606.076 356.784L601.354 365.743L602.326 368.198Z" fill="#74788D"/>
<path d="M564.496 388.055L566.241 387.176L567.547 388.237L566.241 390.253L564.663 389.632L564.496 388.055Z" fill="#74788D"/>
<path d="M568.002 382.523L570.628 382.083L571.509 383.751L570.203 385.16L568.898 384.978L568.002 382.523Z" fill="#74788D"/>
<path d="M573.755 373.291L573.057 376.277L575.152 377.414L577.155 375.914L576.457 372.836L573.755 373.291Z" fill="#74788D"/>
<path d="M588.253 381.204L588.071 384.978L579.509 384.797L574.271 394.907L586.583 408.352L589.634 405.806L589.543 403.168L587.448 402.198V400.349L592.169 397.363L596.359 400.531L600.989 400.622L600.898 384.721L593.566 384.372L593.475 381.037L588.253 381.204Z" fill="#74788D"/>
<path d="M580.056 381.295L579.965 383.402L586.857 383.751L586.766 381.371L580.056 381.295Z" fill="#74788D"/>
<path d="M595.251 381.037L595.16 383.235L602.416 383.417L602.674 402.228L596.04 402.046L592.2 399.06L589.224 400.727L589.088 401.561L590.621 402.304L591.061 406.169L586.962 409.686L587.843 411.535L592.382 408.019H594.568L595.266 410.125L598.15 411.353L607.411 403.532L607.228 397.817L609.156 393.164L615.092 388.768L616.686 373.898L612.466 373.913L607.578 380.597L595.251 381.037Z" fill="#74788D"/>
<path d="M588.497 412.43L591.138 415.856L594.554 412.627L593.552 409.277L592.702 409.216L588.497 412.43Z" fill="#74788D"/>
<path d="M592.793 416.189L608.444 415.916L611.617 420.418L611.495 423.737L612.664 424.798H620.437L622.668 420.418H625.841L627.131 421.721L631.488 421.6L632.779 436.879L640.308 437.122V438.304L660.544 447.414L661.485 449.188H665.72L665.25 442.791L657.599 439.123L658.069 434.272L661.364 426.572L668.893 426.329L662.426 404.896L662.548 395.786L672.779 379.809L672.901 377.566L671.368 376.732L671.428 372.397L669.561 372.23L667.679 369.835L636.786 368.441L631.124 373.943L621.849 367.849L618.585 369.85L616.217 389.753L610.357 394.27L608.596 398.272L608.915 404.199L598.349 412.824L595.541 411.55L595.92 413.202L592.793 416.189Z" fill="#74788D"/>
<path d="M666.327 392.224L670.593 396.15L670.411 400.349L663.792 400.485V395.847L666.327 392.224Z" fill="#74788D"/>
<path d="M663.883 401.789L670.365 401.652L668.68 407.321L667.04 408.746H665.036L663.609 404.911L663.883 401.789Z" fill="#74788D"/>
<path d="M667.055 390.996L671.655 395.301L674.539 393.467L682.342 392.194L683.678 392.33L684.179 389.374L688.581 380.128L684.877 372.427L672.869 372.503L672.793 375.671L674.403 377.217L674.16 380.385L667.055 390.996Z" fill="#74788D"/>
<path d="M686.077 371.942L690.115 379.809L685.272 389.95L684.635 393.027L708.817 407.958L716.317 396.195L712.521 393.118L712.446 377.627L717.197 372.443L709.622 374.959L703.899 375.035L694.942 367.486L692.119 366.273L686.881 366.758L685.955 368.304L686.077 371.942Z" fill="#74788D"/>
<path d="M685.682 440.002L712.202 436.758L706.236 425.238L705.918 414.203L707.846 408.928L682.616 393.103L674.707 394.407L671.959 396.438L671.716 401.061L669.94 407.473L668.088 409.671L665.431 409.913L670.517 427.512L678.82 431.408L684.544 431.574L685.682 440.002Z" fill="#74788D"/>
<path d="M631.001 460.132L635.813 466.802L643.267 467.256L645.908 468.711L653.711 468.802L660.436 459.389L679.23 450.992L680.869 443.595L678.683 432.999L668.876 427.421L662.334 427.876L659.07 435.091L659.161 438.38L666.873 442.124L667.328 450.264L660.694 450.628L659.055 447.884L640.625 440.032L640.079 446.065L631.365 446.338L631.001 460.132Z" fill="#74788D"/>
<path d="M591.639 417.705L596.815 437.001L596.694 443.094L589.119 451.219L587.98 464.422L617.127 464.68L626.599 468.105L634.417 467.09L629.863 461.39L629.878 445.111L638.835 444.732V438.38L631.563 438.077L630.106 423.04L627.04 423.086L625.385 421.6L623.578 421.691L621.18 426.33H611.95L609.81 424.177L610.447 421.13L607.927 417.447L591.639 417.705Z" fill="#74788D"/>
<path d="M680.506 452.098L685.227 457.024L685.136 463.33L686.047 465.983L692.317 459.222L691.588 450.628L688.233 448.066L685.243 432.984L680.066 432.802L682.419 443.67L680.506 452.098Z" fill="#74788D"/>
<path d="M671.412 503.454L675.496 506.834L685.121 500.983L686.669 492.298V477.958L702.108 465.346L704.749 465.437L714.1 456.479L712.643 438.016L687.853 441.139L688.582 446.717L692.847 450.006L693.849 460.056L685.5 468.196L683.496 463.634L683.861 457.601L679.048 452.386L667.238 457.873L678.229 463.452L678.593 479.716L671.321 490.494L671.412 503.454Z" fill="#74788D"/>
<path d="M646.349 471.652L659.966 487.007L670.41 489.66L677.408 478.701L676.862 464.179L665.507 458.328L661.241 460.253L654.88 469.939L646.076 469.848L646.349 471.652Z" fill="#74788D"/>
<path d="M603.676 516.611L608.762 516.975L611.752 519.992L618.842 520.082L620.572 499.983V486.826L625.111 485.916L626.842 472.122L638.379 471.758L642.462 468.378L635.555 468.105L626.204 469.379L616.124 465.726H587.797L588.526 473.759L597.968 487.644L596.329 494.768L596.42 498.513L603.676 516.611Z" fill="#74788D"/>
<path d="M621.833 500.347L625.097 501.347L624.641 510.669L627.996 511.124L635.708 504.182L644.968 505.182L647.427 498.967L659.147 488.281L645.074 472.107L644.892 469.455L643.344 469L639.078 472.926L627.996 473.199L626.448 486.992L622.091 487.993L621.833 500.347Z" fill="#74788D"/>
<path d="M670.958 504.545L667.147 505.182L665.508 509.653L668.422 512.306H671.96L674.95 508.016L670.958 504.545Z" fill="#74788D"/>
<path d="M650.524 521.811L655.154 518.248L657.34 518.339L659.981 521.629L659.708 524.918L655.26 526.555V527.828L650.357 527.556L649.173 523.993L650.524 521.811Z" fill="#74788D"/>
<path d="M660.77 488.826L648.777 499.892L645.923 506.728L636.42 505.546L628.511 512.564L623.258 512.049L623.684 502.347L621.816 501.696L620.511 521.537L611.19 521.447L608.381 518.142L604.268 518.097L608.017 528.844L614.712 535.165L609.93 540.728L613.027 547.7L620.192 550.429L625.9 545.578L642.249 545.669L643.418 544.214L650.675 542.941L675.221 518.536L675.13 510.851L672.504 514.246H668.572L663.791 510.245L666.219 504.212L670.394 503.363L670.015 490.964L660.77 488.826ZM655.016 516.869L657.308 516.778L661.028 520.81L660.921 525.479L656.565 527.677L656.291 529.223L649.642 529.298L647.563 524.296L649.46 520.628L655.016 516.869Z" fill="#74788D"/>
<path d="M337.38 -47.1035L335.315 -43.8142L339.034 -40.1005L337.38 -36.3868L342.753 -29.3837L349.357 -31.4452L358.025 -32.2638L367.938 -21.547L374.542 -3.82713L369.183 7.29892L376.606 6.05595L380.735 8.52672L381.145 13.8927L372.067 14.302L377.016 19.2435L383.21 20.4865L369.593 38.6156L367.938 49.7416L370.822 58.8062L368.758 64.1722L372.477 75.7075L379.49 83.5442L381.555 83.135L386.094 81.892L386.504 88.4858L389.388 92.6088L394.747 92.1995L398.876 76.9505L411.263 61.7014L429.844 54.2891L441.397 39.8585L446.755 42.3293H457.898L466.976 33.2648L478.118 28.7325L479.363 21.7294L472.35 15.5449L466.156 13.4834L462.847 4.82815L470.695 0.295866L483.082 6.88965L487.212 2.35737L480.608 -1.35636L494.65 -20.3192L492.176 -28.5652L485.572 -28.9744L488.047 -36.3868L496.305 -40.1005L513.231 -54.9403L508.282 -60.2911L489.291 -58.6389L479.378 -48.7406L485.162 -61.5189L478.559 -63.1711L474.839 -56.5774L469.481 -61.1096L454.619 -59.4574L458.748 -66.0512L483.098 -66.8697L476.904 -75.1157L450.49 -80.0573L439.757 -78.405L440.167 -73.0391L429.025 -76.7528L429.434 -80.4666L421.586 -78.8143L419.931 -74.6913L428.19 -71.8113L419.522 -65.6268L413.328 -72.6298L404.66 -75.1006L403.415 -68.5068H394.747L391.437 -75.5098L377.821 -77.5714L370.397 -73.8576L369.987 -68.9161L360.499 -70.159L354.716 -67.6883L355.126 -61.913V-59.033L344.393 -56.9715L339.444 -60.2608L336.135 -54.91L341.084 -49.544L351.406 -50.787L352.226 -47.4825L344.378 -43.7688L337.38 -47.1035Z" fill="#74788D"/>
<path d="M370.413 17.197L372.888 20.9108L371.643 25.4431H369.168L365.859 21.7293L366.679 18.8493L370.413 17.197Z" fill="#74788D"/>
<path d="M473.61 6.8894L480.623 8.95091L480.213 14.7262L472.79 11.0124L471.135 8.95091L473.61 6.8894Z" fill="#74788D"/>
<path d="M1005.38 525.736L1004.85 564.208L998.933 568.543L998.401 572.332L1006.48 577.744L1026.41 573.954H1036.64L1040.41 568.528L1063.03 564.193L1079.18 569.074L1078.1 575.576L1080.25 582.079L1092.64 579.912L1093.17 583.155L1085.1 589.113L1087.78 591.28L1093.7 589.113L1092.1 606.999L1103.41 615.67L1109.87 613.502L1113.11 616.746L1131.96 614.032L1149.74 585.308L1156.2 583.686L1169.12 559.842L1172.36 539.257L1164.28 528.965L1167.51 526.798L1161.05 506.743L1154.05 501.862L1155.13 474.775L1148.66 469.894L1147.05 454.721H1143.82L1133.04 490.479L1127.12 491.024L1113.65 477.473L1121.2 457.419L1107.2 454.706L1091.58 459.041L1087.27 471.501L1080.27 473.123L1079.74 464.452L1051.2 481.793L1051.73 488.296L1047.42 494.253H1036.64L1013.48 504L1005.38 525.736Z" fill="#74788D"/>
<path d="M1103.41 629.236L1100.72 640.074L1101.25 647.653L1109.33 647.107L1118.48 633.026L1103.41 629.236Z" fill="#74788D"/>
<path d="M1219.75 646.577L1224.06 654.702L1212.2 666.086L1211.13 672.043L1203.05 673.119L1189.59 685.579L1177.2 679.622L1176.12 675.287L1198.74 665.54L1219.75 646.577Z" fill="#74788D"/>
<path d="M946.651 358.376L946.226 361.832L956.533 379.127H959.539L981.019 415.006L989.612 415.87L993.908 403.335L987.031 399.015L985.741 392.102L946.651 358.376Z" fill="#74788D"/>
<path d="M1009.89 381.643L1014.48 386.934L1032.06 380.855L1035.53 367.455L1043.37 366.895L1050.53 361.71L1041.24 354.95L1039.12 351.236L1034.53 359.679L1036.22 364.53L1033.42 368.577L1028.16 367.228L1015.39 376.581L1015.72 381.992L1009.89 381.643Z" fill="#74788D"/>
<path d="M1033.62 360.922L1029.25 366.213L1032.83 367.334L1034.85 364.515L1033.62 360.922Z" fill="#74788D"/>
<path d="M1048.44 406.184L1051.87 410.383L1049.64 416.689V417.886H1054.71L1056.5 402.122L1058.14 402.577L1061.11 416.977L1063.95 417.735L1066.64 411.581L1063.95 402.274L1061.72 398.226L1068.73 393.118L1067.09 390.86L1060.38 395.21H1058.59L1055.31 390.405L1056.36 388.298L1061.89 385.6L1070.24 388.146L1072.77 387.995L1079.04 382.144L1076.51 379.597L1070.69 384.099H1066.96L1061.29 381.401L1057.27 381.553L1052.79 388.753L1049.95 401.213L1048.44 406.184Z" fill="#74788D"/>
<path d="M1085.87 377.975L1083.03 384.872L1087.51 390.723H1089L1090.94 386.828L1091.99 385.479L1090.05 383.372L1087.21 382.326L1085.87 377.975Z" fill="#74788D"/>
<path d="M1094.68 400.637L1088.56 401.986L1086.77 403.941L1088.26 406.488L1092.28 404.987L1094.81 403.486L1098.55 406.488L1100.19 405.139L1097.21 401.531L1094.68 400.637Z" fill="#74788D"/>
<path d="M993.24 420.145L989.065 422.995L989.961 425.39L1003.24 428.391L1009.95 429.589L1012.79 432.59L1020.4 433.196L1023.98 436.198L1027.26 435.44L1030.25 432.741L1024.72 430.195L1019.96 426.148L1007.57 423.146L993.24 420.145Z" fill="#74788D"/>
<path d="M1036.66 433.196L1033.38 435L1035.32 437.107L1040.09 435.303L1036.66 433.196Z" fill="#74788D"/>
<path d="M1042.32 431.847L1042.91 434.697L1046.34 435.591L1047.68 433.939L1046.19 431.68L1042.32 431.847Z" fill="#74788D"/>
<path d="M1050.53 439.351L1046.36 439.957L1050.09 443.11H1053.07L1050.53 439.351Z" fill="#74788D"/>
<path d="M1051.72 434.394L1050.82 436.197L1057.53 437.243L1062.75 434.242L1059.78 433.348L1055.01 434.697L1053.22 433.196L1051.72 434.394Z" fill="#74788D"/>
<path d="M1073.65 435.455L1065.89 441.912L1066.64 443.564L1069.92 442.958L1073.79 439.35L1081.39 438.304L1079.91 435.758L1073.65 435.455Z" fill="#74788D"/>
<path d="M1186.5 406.018L1185.17 407.913L1192.47 414.37L1193.47 418.16L1195.46 417.932L1195.69 414.037L1193.47 412.036L1186.5 406.018Z" fill="#74788D"/>
<path d="M1190.16 415.158L1188.72 415.491L1187.84 419.387L1185.08 421.176L1176.77 422.631L1177.11 425.753L1185.85 425.314L1191.39 421.858L1191.06 415.84L1190.16 415.158Z" fill="#74788D"/>
<path d="M1048.19 327.999L1046.89 330.485L1046.16 333.547L1038.9 342.748L1039.34 344.643L1042.39 344.203L1051.82 333.683L1048.19 327.999Z" fill="#74788D"/>
<path d="M1059.94 324.497L1059.79 332.092L1062.55 334.865L1063.57 340.262L1066.33 340.853L1067.64 337.488L1065.47 335.881L1064.89 326.392L1059.94 324.497Z" fill="#74788D"/>
<path d="M1067.79 327.423L1067.64 334.138L1069.23 336.76L1072 333.547L1071.27 327.711L1067.79 327.423Z" fill="#74788D"/>
<path d="M1069.52 321.572L1072.29 325.225L1073.59 328.726H1076.07L1075.62 322.739L1072.86 320.844L1069.52 321.572Z" fill="#74788D"/>
<path d="M1074.9 335.305L1075.47 339.686L1070.39 343.779L1066.18 344.218L1061.69 349.039L1061.84 351.236L1066.05 349.918L1068.95 348.023L1071.42 354.298L1075.78 357.36L1077.52 356.769L1079.12 354.874L1075.64 351.373L1077.68 349.766L1080 351.661L1081.59 349.039L1080 345.825L1079.71 338.67L1074.9 335.305Z" fill="#74788D"/>
<path d="M1051.25 290.771L1047.33 293.545L1046.89 302.306L1052.99 314.129L1055.02 315.736L1057.64 313.978L1062.13 314.705L1062.99 318.646L1066.33 318.934L1067.93 316.752L1065.89 313.978L1063.42 311.643L1058.2 311.067L1055.43 306.535L1058.62 301.715L1058.91 297.486L1056.74 292.089L1051.25 290.771Z" fill="#74788D"/>
<path d="M1053.28 316.903L1054.43 320.996L1056.47 322.315L1057.92 320.42L1055.6 317.206L1053.28 316.903Z" fill="#74788D"/>
<path d="M1003.35 286.526L999.722 287.542L997.111 290.755L999.282 294.984L1002.47 295.272L1006.1 292.059L1006.96 287.83L1003.35 286.526Z" fill="#74788D"/>
<path d="M1045.29 253.391L1039.92 257.483L1039.63 265.366L1044.28 270.762L1045.43 269.746L1045.29 253.391Z" fill="#74788D"/>
<path d="M1069.23 205.052L1066.76 207.538L1067.78 211.039L1069.95 211.191L1071.4 218.785L1073.15 220.68L1076.2 217.906L1077.51 212.934L1073.73 207.538L1069.23 205.052Z" fill="#74788D"/>
<path d="M1082.59 200.095L1078.39 204.036L1078.24 208.568L1079.25 209.887L1084.92 205.067L1084.48 200.246L1082.59 200.095Z" fill="#74788D"/>
<path d="M1076.78 190.742L1069.37 199.216L1070.68 201.262L1074.3 201.701L1081.12 196.442L1085.92 195.562L1090.27 200.671L1093.61 199.504L1094.92 194.532L1101.16 194.38L1107.26 187.074L1104.07 174.947L1102.62 168.52L1105.8 165.898L1098.55 154.954L1096.67 155.105L1092.75 159.486V163.139L1094.5 165.186L1095.07 174.826L1090.58 180.374L1087.97 178.767L1085.93 183.3L1085.49 187.529L1087.09 190.015L1086.07 191.909L1082.73 189.135H1080.41L1078.37 190.303L1076.78 190.742Z" fill="#74788D"/>
<path d="M1089.27 124.744L1086.95 126.79L1088.12 131.171L1090.15 133.217L1090 139.932L1087.39 140.948L1085.36 145.48L1091.31 153.65L1095.22 152.332L1095.95 150.285L1091.75 146.496L1094.36 143.131L1097.12 143.57L1099.29 145.905L1099.44 141.084L1105.39 136.264L1108.73 135.385L1105.97 130.716L1104.67 128.67L1102.49 130.125L1100.61 132.459L1096.54 131.58L1092.34 128.806L1089.27 124.744Z" fill="#74788D"/>
<path d="M1111.18 120.212L1107.11 125.911L1107.4 128.685L1109.43 127.806L1114.21 121.818L1111.18 120.212Z" fill="#74788D"/>
<path d="M1116.55 111.89L1115.09 115.831L1115.25 118.453L1117.72 116.846L1120.04 112.178V110.435L1116.55 111.89Z" fill="#74788D"/>
<path d="M1125.11 77.1323L1123.23 79.4667L1123.38 83.1198L1125.13 82.9682L1128.03 77.8599L1125.11 77.1323Z" fill="#74788D"/>
<path d="M1121.64 86.0454V92.4724L1123.67 93.2L1125.13 90.8656V85.9089L1121.64 86.0454Z" fill="#74788D"/>
<path d="M1062.27 62.823L1062.13 72.1756L1073.88 90.2895L1078.08 106.054L1085.49 120.075L1088.39 121.091L1090.87 119.044L1092.02 115.679L1081.42 104.144L1081.71 98.1566L1084.04 97.141L1084.61 93.6394L1063.86 64.2933L1062.27 62.823Z" fill="#74788D"/>
<path d="M1144.13 33.7649L1141.23 34.0529L1142.98 36.5389L1146.61 39.0248L1147.63 37.8576L1144.13 33.7649Z" fill="#74788D"/>
<path d="M1149.78 35.5232L1150.22 38.0091L1154.72 39.3279L1155.16 37.5695L1149.78 35.5232Z" fill="#74788D"/>
<path d="M1174.45 45.0576L1176.35 48.453L1179.51 48.2408L1180.14 45.9065L1174.45 45.0576Z" fill="#74788D"/>
<path d="M1190.94 -96.413L1184.53 -84.9383L1196.8 -77.1925L1210.53 -88.6975L1218.88 -74.7975L1210.17 -73.0088L1206.72 -64.0959L1226.02 -37.9936L1237.63 -36.0685L1254.38 -32.7792L1256.44 -38.8425L1262.28 -36.5991L1263.39 -11.2092L1252.57 6.78345L1257.79 7.9203L1271.42 -20.7588L1275.57 -42.2227L1267.16 -46.1487L1265.81 -74.9491L1272.29 -73.691L1272.23 -56.3652L1279.3 -50.1959L1283.43 -65.2479L1280.12 -74.1912L1290.11 -69.4164L1291.16 -122.455L1176.15 -122.242L1169.53 -117.164L1170.43 -106.902L1190.81 -104.113L1206.47 -107.675L1200.85 -97.186L1190.94 -96.413Z" fill="#74788D"/>
<path d="M795.27 634.329L795.042 640.832L804.059 642.924L806.139 637.573L802.906 638.498L798.746 639.423L797.592 634.542L795.27 634.329Z" fill="#74788D"/>
<path d="M780.47 481.793L778.162 484.81L778.618 488.069L783.475 484.112L780.47 481.793Z" fill="#74788D"/>
<path d="M771.922 486.917L768.461 487.144L768.233 490.161L770.541 490.63L774.002 489.009L771.922 486.917Z" fill="#74788D"/>
<path d="M749.03 442.276L745.797 449.946L740.256 459.708L730.556 460.405L726.396 465.286L727.094 480.171L721.083 487.144L721.781 498.998L726.867 504.803L732.878 504.106L738.89 499.68L737.508 492.707L751.368 468.757L748.59 465.741L751.368 459.935L754.374 460.86L755.3 458.541L752.522 446.687L750.898 441.806L749.03 442.276Z" fill="#74788D"/>
<path d="M726.852 439.714L727.55 442.034L730.556 442.503L731.71 439.487L726.852 439.714Z" fill="#74788D"/>
<path d="M731.239 444.368L732.393 446.929H734.244L735.17 443.671L731.239 444.368Z" fill="#74788D"/>
<path d="M764.288 420.176L763.362 422.04L765.897 424.132L767.749 422.04L764.288 420.176Z" fill="#74788D"/>
<path d="M777.236 406.23L774.458 408.095L776.538 411.354H779.316L777.236 406.23Z" fill="#74788D"/>
<path d="M778.39 414.37L776.538 416.462L777.919 418.554L780.454 419.023L780.682 414.597L778.39 414.37Z" fill="#74788D"/>
<path d="M846.338 363.211L846.793 367.168L849.329 368.092L849.784 364.606L846.338 363.211Z" fill="#74788D"/>
<path d="M849.571 371.578L849.344 376.459L851.196 377.384L852.82 374.125L849.571 371.578Z" fill="#74788D"/>
<path d="M850.042 381.113L848.417 382.735L850.269 384.357L852.577 382.735L850.042 381.113Z" fill="#74788D"/>
<path d="M415.575 205.961L413.51 208.038L417.215 210.114L417.625 207.219L415.575 205.961Z" fill="#74788D"/>
<path d="M426.702 204.718L424.228 206.37L426.292 208.023L429.586 207.189L426.702 204.718Z" fill="#74788D"/>
<path d="M428.342 210.523L427.112 213.843L428.752 215.92L430.816 214.268L428.342 210.523Z" fill="#74788D"/>
<path d="M438.223 217.148L437.403 219.224L438.633 220.467L441.927 218.391L438.223 217.148Z" fill="#74788D"/>
<path d="M469.526 235.368L467.887 237.444L469.526 239.521L472.001 238.278L469.526 235.368Z" fill="#74788D"/>
<path d="M480.82 261.606L478.164 263.137L479.393 264.38L480.82 261.606Z" fill="#74788D"/>
<path d="M471.59 261.894L468.296 262.728L469.936 265.214H472.41L471.59 261.894Z" fill="#74788D"/>
<path d="M463.757 259.408L461.693 261.485L464.577 263.971L466.217 260.242L463.757 259.408Z" fill="#74788D"/>
<path d="M438.224 317.403L435.34 319.056L437.404 320.708L439.879 319.465L438.224 317.403Z" fill="#74788D"/>
<path d="M445.314 320.738L443.431 322.406L444.767 324.876L447.985 323.436L445.314 320.738Z" fill="#74788D"/>
<path d="M441.199 325.422L438.785 326.862L441.381 330.333L443.43 329.257L441.199 325.422Z" fill="#74788D"/>
<path d="M269.78 306.535L267.503 307.475L268.308 309.491L270.979 307.747L270.448 307.202L269.78 306.535Z" fill="#74788D"/>
<path d="M273.529 308.824L272.193 311.659L273.802 313.811L275.806 312.068L273.529 308.824Z" fill="#74788D"/>
<path d="M278.084 316.631L276.475 318.116L277.675 320.541L279.952 319.874L278.084 316.631Z" fill="#74788D"/>
<path d="M277.947 322.693L276.869 324.982L278.615 326.862L280.892 325.649L277.947 322.693Z" fill="#74788D"/>
<path d="M278.084 328.484L276.217 329.833L277.69 332.531L280.103 331.182L278.084 328.484Z" fill="#74788D"/>
<path d="M275.807 333.729L274.062 335.472L274.729 336.548H276.87L277.538 334.79L275.807 333.729Z" fill="#74788D"/>
<path d="M278.341 338.989L276.732 340.474L274.987 340.747V342.899L278.205 345.855L279.541 343.703L280.345 341.278L280.072 339.261L278.341 338.989Z" fill="#74788D"/>
<path d="M261.356 303.034L257.348 301.685L254.13 303.701L255.739 305.58L261.219 306.383L261.356 303.034Z" fill="#74788D"/>
<path d="M230.721 294.424L228.186 297.016L231.085 298.198L231.51 301.821L225.089 302.382L225.742 305.868L227.609 306.005L228.687 304.398L236.186 304.64L237.537 307.232L239.267 305.201L244.323 303.837L248.771 304.777L249.287 302.094L241.271 296.864L236.08 294.924L230.721 294.424Z" fill="#74788D"/>
<path d="M249.301 302.094L241.271 296.849L237.476 295.56L236.201 304.655L237.537 307.217L239.282 305.201L244.368 303.852L248.785 304.792L249.301 302.094Z" fill="#74788D"/>
<path d="M230.706 294.424L235.928 294.969L235.305 301.366L234.789 304.731L228.702 304.398L227.624 306.02L225.757 305.883L225.089 302.382L231.51 301.851L231.116 298.213L228.171 297.001L230.706 294.424Z" fill="#74788D"/>
<path d="M317.372 647.304L313.379 646.865L309.402 649.533L312.286 652.655L317.372 647.304Z" fill="#74788D"/>
<path d="M321.349 645.304L320.028 649.533L316.263 652.868L316.491 653.974L322.912 651.518L325.569 648.184L321.349 645.304Z" fill="#74788D"/>
<path d="M466.764 54.8193L463.788 53.1367L459.78 55.6681L456.334 58.8513L456.426 60.6248L460.889 61.1857L460.615 64.3689L459.037 65.9605L459.416 66.9912L463.879 67.2792V72.433L470.301 73.5547L474.111 75.7071L478.392 75.8891L485.739 72.2359L491.417 64.7478L491.508 59.685L488.062 56.7747L485.178 54.3342L483.872 55.274L481.914 57.8054L479.682 57.5174L477.451 55.077L474.566 55.3498L470.376 58.821L467.857 61.5343L466.46 60.3217L466.369 57.3204L467.765 56.3806L466.764 54.8193Z" fill="#74788D"/>
<path d="M703.459 -5.81299L710.518 -5.02476L712.871 3.13031L718.883 9.43609L716.788 13.65H713.129L709.729 9.70894L702.154 9.45124L699.011 5.23729V2.34209L703.717 1.02333L703.459 -5.81299Z" fill="#74788D"/>
<path d="M882.984 343.945L883.363 348.068L883.743 351.07L881.511 351.449L882.635 358.194L885.989 360.074L891.196 357.072L889.709 349.963L890.088 347.341L885.246 342.854L882.984 343.945Z" fill="#74788D"/>
<path d="M185.149 281.6V283.525L193.225 283.677L197.035 281.464L197.627 283.085L205.552 285.011L212.595 291.362L210.986 293.575L211.275 296.091L217.15 297.561L223.024 294.909L225.666 292.256L221.856 290.331L202.197 278.811L195.305 278.068L185.149 281.6Z" fill="#74788D"/>
<path d="M213.628 269.792L211.715 269.201L211.563 272.884L213.916 275.249L215.525 272.884L213.628 269.792Z" fill="#74788D"/>
<path d="M217.439 275.552L214.797 277.022L217.287 280.569L218.607 278.796L217.439 275.552Z" fill="#74788D"/>
<path d="M225.953 278.205L223.16 278.053L223.449 279.826L225.498 282.782L227.259 280.857L225.953 278.205Z" fill="#74788D"/>
<path d="M224.633 274.673L220.079 272.748L219.199 268.17L220.96 267.427L222.721 270.974L224.482 272.308L224.633 274.673Z" fill="#74788D"/>
<path d="M220.231 265.366L217.878 264.774L217.438 261.819L214.948 260.939L216.557 259.318L219.487 260.348L221.688 261.682L220.231 265.366Z" fill="#74788D"/>
<path d="M212.595 300.805L207.312 302.139V303.61L210.394 305.383H213.627L215.676 303.018L212.595 300.805Z" fill="#74788D"/>
<path d="M1112.8 391.375L1106.47 392.088L1102.4 395.059L1104.09 398.454L1110.98 399.727V401.001L1106.62 404.532L1108.73 411.884L1110.84 412.02L1112.67 404.805H1116.04L1117.45 411.869L1133.89 425.451L1134.31 436.061L1139.93 442.14L1142.46 442.003L1143.03 404.532L1133.48 397.893L1124.48 403.971L1121.24 405.957L1115.9 402.562L1115.76 391.815L1112.8 391.375Z" fill="#74788D"/>
<path d="M-8.76754 -54.9557L-21.504 -51.9392L-18.8778 -37.6148L-5.01794 -33.8404L-4.27409 -30.8239L-24.8741 -24.4121L-36.4872 -5.19158L-32.3733 15.1658L-25.6331 19.6829L-20.3807 14.7868L-18.8778 17.8033L-25.2536 25.3369L-49.9827 36.6448L-65.725 40.4192L-66.1045 46.0732L-29.7622 35.5231L-14.779 31.3698L-0.919194 14.4079L14.4435 4.23677L6.58 17.4243L15.2026 18.5612L29.8214 12.1493L32.4477 22.6993L42.5579 24.9579L53.0477 35.129L53.7915 42.6626L52.2887 44.5422L54.1559 51.6968H56.7821L57.1616 39.631H60.1522L60.896 69.4015L68.3952 62.9896L63.1427 32.0822H55.2792L46.6567 21.1532L88.9952 -50.4689L47.0362 -83.2559L0.204164 -74.2065L-1.66304 -59.8821L8.44721 -53.8491L4.69762 -44.0418L-8.76754 -54.9557Z" fill="#74788D"/>
<path d="M145.862 389.617L144.92 393.785L143.175 395.544L144.374 397.696L147.455 396.483L148.928 393.922L147.987 391.223L145.862 389.617Z" fill="#74788D"/>
<path d="M279.314 -29.6416L271.906 -30.3237L263.162 -26.9435L258.456 -20.5164L259.807 -2.9027L274.274 -2.22059L288.073 4.55509L297.834 15.7266L305.242 15.3931L303.223 25.8825L296.499 37.0541L289.09 40.4343L283.701 39.4187L281.014 37.0541L276.976 42.4655L278.661 47.877L284.384 48.2104L291.459 44.8302L297.516 60.4127L312.666 70.2352L323.095 57.0325L314.351 42.8142L319.406 37.0541L326.48 48.9077L339.262 37.7362L336.909 32.6582L328.165 35.3715L322.108 18.7734L327.831 9.29957L316.385 -2.88755L309.994 1.5083L303.937 -11.6944L291.155 -9.9967L287.785 -25.9127L277.356 -18.8036L276.339 -9.9967H270.616L271.284 -17.788L279.314 -29.6416Z" fill="#74788D"/>
<path d="M253.705 31.385L247.283 39.4491L246.889 48.3318L252.506 45.1031H259.322L264.134 49.5444L268.551 45.9065L253.705 31.385Z" fill="#74788D"/>
<path d="M331.899 136.279L315.854 151.619L317.463 155.257L337.106 162.518L339.915 157.683L338.305 149.618L331.884 150.422L328.271 146.39L334.283 140.342L331.899 136.279Z" fill="#74788D"/>
<path d="M90.0731 -49.241L93.094 -44.6784L94.6121 -38.5848L102.172 -36.6901L107.47 -42.3895L112.009 -40.1006L124.867 -38.9638L133.945 -42.7685L135.463 -30.2175H140.761V-35.538L146.059 -35.1591L159.296 -19.5614L167.995 -14.2409L163.456 -7.01048L165.353 -5.11572L182.34 -1.68998L182.72 5.91939L187.259 6.6773L188.398 -4.73677L195.578 -6.63153L200.876 1.3568L212.216 6.6773L217.893 7.81416L221.673 3.25156L222.053 -3.97886L228.854 -8.16249L231.116 -2.06893L225.059 8.58721L225.818 13.9077L229.218 8.58721L236.019 2.49366L236.398 -5.49467L232.618 -11.5882L233.757 -16.5298L242.835 -21.0924L246.994 -18.0456L247.754 8.58721L254.175 2.88777L257.955 5.17664L252.657 14.3018L259.458 15.8176L269.295 0.598895L277.614 9.34512L274.213 24.9428L265.894 29.5054L257.955 25.7007L243.594 28.7475L245.112 33.689L241.332 39.7826L229.613 42.4504L216.375 52.7276L204.656 68.3253L203.138 73.2669L211.077 76.3136L214.098 83.923L225.059 94.9581L242.456 102.567L238.676 120.06L238.296 125.001L242.835 128.048L248.892 120.06L249.651 104.841L259.109 104.462L263.648 95.716L264.407 82.4072L276.505 58.8212L291.625 64.1417L299.565 75.1768L296.164 86.2119L302.221 89.6376L316.962 79.7394L321.121 106.751L334.738 123.107L335.118 131.474L319.998 135.279L312.817 142.888L297.698 139.462L290.138 139.083L276.9 149.361L284.84 147.466L294.677 145.571L296.574 147.86L293.933 156.227L294.312 163.837L298.851 166.883L303.39 165.746L305.667 162.321H308.688L303.77 171.446L294.312 171.825L290.153 177.918H284.855L283.337 173.356L290.897 165.746L281.819 168.793L281.409 155.863L278.798 154.348L270.858 157.773L270.099 164.246H251.943L236.444 174.902L215.647 181.753L213.385 178.707L223.859 163.094L217.909 157.379L214.129 150.134L206.432 144.267L198.174 143.585L183.373 133.232L76.0311 115.619L74.2549 108.358L64.4179 99.2327V91.6233L65.936 84.7719L65.177 80.9672L61.397 77.1625L60.638 71.0689L70.475 64.2175L64.4179 31.5063L56.099 31.1273L48.5391 21.2291L90.0731 -49.241Z" fill="#74788D"/>
<path d="M75.7122 117.013L74.1941 123.107L68.8961 119.681H66.2547L64.7366 126.154L46.2012 167.626L51.1197 203.763L57.1767 206.81L58.3152 216.708H70.7937L82.8926 225.833L106.711 228.122L109.352 240.294L113.132 242.962L118.43 237.641L122.59 239.536L126.37 257.029L132.791 261.212L138.089 251.314L154.347 239.521L164.928 244.463L174.006 245.22L174.386 239.521L193.286 239.9L197.066 244.084L197.825 253.588L195.563 258.908L198.204 268.033H203.882L209.559 259.287L207.297 255.104L205.035 245.978L208.436 235.701L223.935 222.392L235.654 218.967L234.136 207.932L250.395 190.424L266.653 187.756L264.012 178.646L279.891 169.521V157.349L278.373 156.591L272.695 158.486L271.936 165.944L253.067 166.171L238.281 175.978L215.07 183.557L211.366 179.025L221.901 163.109L216.694 158.152L213.157 151.422L205.825 145.541L197.855 144.874L182.796 134.612L75.7122 117.013Z" fill="#74788D"/>
<path d="M53.0485 71.6448L50.4678 76.5863L51.3634 80.0878L53.0485 81.1337L52.6538 82.5586L50.8473 83.074L51.3634 88.2732L53.3065 90.2286L54.855 88.546L52.9118 83.4832L54.0656 79.4512L56.9043 75.6768L54.8398 72.1753L53.0485 71.6448Z" fill="#74788D"/>
<path d="M61.5787 101.264L59.2561 102.173L63.5218 107.115L64.5541 112.966L68.8199 117.513L72.4329 116.862V110.889L68.0457 108.161L61.5787 101.264Z" fill="#74788D"/>
<path d="M145.725 318.889L154.727 325.468L163.805 314.205L162.257 311.871L159.16 311.765V305.171L156.837 303.761L149.809 305.853L152.496 312.038L145.725 318.889Z" fill="#74788D"/>
<path d="M164.959 314.736L178.986 314.205L183.145 319.147L180.55 318.555L175.555 318.768L169.028 324.892L166.234 331.091L164.397 330.121L164.382 323.33L160.344 320.632L164.959 314.736Z" fill="#74788D"/>
<path d="M156.002 326.089L163.137 329.636L163.031 324.012L159.372 321.784L156.002 326.089Z" fill="#74788D"/>
<path d="M180.428 319.783L183.752 320.45L183.858 327.256L179.987 338.291L169.558 337.261L167.236 331.94L170.332 325.483L176.207 320.026L180.428 319.783Z" fill="#74788D"/>
<path d="M179.882 339.292L181.992 343.415L183.707 345.688L181.4 352.525L176.998 349.432L169.802 342.854V338.503L179.882 339.292Z" fill="#74788D"/>
<path d="M184.755 346.31L182.538 353.222L189.855 355.117L194.394 356.011L195.169 350.661L200.042 348.205L204.368 350.433L206.068 353.146L208.133 352.904L209.757 347.977L204.353 345.749L200.254 343.521L196.155 346.31L191.282 348.766L186.303 346.765L184.755 346.31Z" fill="#74788D"/>
<path d="M235.063 331.41L231.935 331.091L211.259 348.114L209.073 354.101L206.25 354.42L207.51 367.653L200.299 385.312L208.132 391.936L218.167 392.573L225.059 402.668L235.078 402.986L234.759 410.55H238.509L242.577 396.68L238.812 391.951L239.753 383.129L247.587 382.492L246.645 361.999L229.097 356.33L225.028 345.294L235.063 331.41Z" fill="#74788D"/>
<path d="M230.098 340.716L230.766 344.642L235.7 346.204L236.823 338.973L242.03 333.592L247.237 339.686L259.214 342.945L269.355 340.822L276.262 349.326L281.469 352.585L275.761 361.271L277.674 367.849L274.41 371.881L271.025 374.716L263.692 371.033L262.007 372.73V377.975L267.366 380.522L263.419 384.781L259.472 389.04L254.265 388.616L249.028 382.871L247.92 361.256L230.037 355.162L226.789 345.658L230.098 340.716Z" fill="#74788D"/>
<path d="M282.608 353.161L293.568 363.075L289.212 368.107L288.862 371.093L294.586 376.99L294.449 382.659L284.49 386.449L278.524 378.4L279.8 368.729L277.249 361.529L282.608 353.161Z" fill="#74788D"/>
<path d="M294.875 363.787L297.972 366.622L302.769 363.651L307.141 363.787L306.579 365.485L304.742 369.305L304.454 378.809L295.725 382.356L296.15 376.262L290.518 371.018L290.807 368.32L294.875 363.787Z" fill="#74788D"/>
<path d="M308.537 364.788L317.417 370.32L312.772 379.537L311.087 381.659L306.153 378.824L306.29 368.896L308.537 364.788Z" fill="#74788D"/>
<path d="M199.342 386.084L192.162 390.541L191.646 397.15L190.203 399.318L194.727 403.653L192.769 405.79L193.224 411.247L201.316 413.172L213.566 398.696L213.536 393.648L207.661 393.269L199.342 386.084Z" fill="#74788D"/>
<path d="M191.494 406.806L188.549 409.777L188.746 414.521L214.462 461.33L241.165 478.519L245.294 471.607L246.281 456.403L244.125 446.929L236.854 434.682L232.527 436.061L230.569 438.229L221.931 428.345L224.087 416.689L234.106 410.171L233.317 404.047L223.115 403.653L217.817 394.77L214.872 393.785L215.07 399.121L201.923 414.718L192.101 412.354L191.494 406.806Z" fill="#74788D"/>
<path d="M242.622 442.079L255.116 436.637L259.245 437.031L261.993 448.491L281.029 454.812L284.171 464.498L292.02 465.483L295.36 473.774L293.007 481.278L280.24 482.263L275.534 494.314L265.515 494.117L262.372 493.526L256.588 499.134L253.734 498.861L243.913 476.139L246.63 472.077L247.586 456.009L245.157 446.444L242.622 442.079Z" fill="#74788D"/>
<path d="M292.793 482.582L296.133 486.219L295.738 493.92L305.363 493.329L312.634 502.621L312.042 510.912L307.336 518.021L297.712 518.415L297.317 514.459L300.065 507.941L290.638 502.014H282.789L276.899 495.693L281.18 483.476L292.793 482.582Z" fill="#74788D"/>
<path d="M305.85 531.724L302.738 535.044L304.028 552.9L313.804 555.734L326.237 543.29L305.85 531.724Z" fill="#74788D"/>
<path d="M313.607 510.912L316.552 513.671L305.364 530.269L301.432 534.619L302.798 553.582L311.436 564.056L304.18 576.698L298.684 579.063H292.399L294.16 588.931L284.339 592.296L286.692 600.587L280.801 619.353L288.073 625.28L284.141 634.951L277.462 645.425L280.999 652.731L272.361 654.111L265.287 645.425L264.103 618.368L253.112 572.408L256.437 556.341L249.363 535.802L254.069 509.139L258.395 504L257.332 500.104L262.888 495.042L275.276 495.89L282.198 503.272L290.198 503.409L298.396 508.411L295.982 514.05L296.559 519.749L308.172 519.204L313.607 510.912Z" fill="#74788D"/>
<path d="M280.391 654.05L275.518 659.431L274.926 665.752L265.499 660.416L255.48 646.001L252.535 640.862L256.664 635.527L256.269 628.812L251.563 626.841L247.829 624.082L248.618 620.323L253.522 618.944L254.508 597.222L246.857 592.872L241.863 479.807L243.153 477.564L252.93 500.074L256.057 500.134L257.074 503.727L252.914 508.759L248.133 535.847L254.934 556.704L251.791 572.499L262.873 618.944L264.042 646.107L271.981 655.278L280.391 654.05Z" fill="#74788D"/>
<path d="M248.042 597.222L246.083 600.178L247.07 605.317L249.029 605.514L250.015 598.996L248.042 597.222Z" fill="#74788D"/>
<path d="M326.92 542.214L336.408 523.993L336.757 508.684L354.458 497.285H364.37L372.158 484.112L373.57 458.829L370.382 452.068L389.145 434.97L389.859 416.098L364.37 403.638L333.584 394.028L319.072 392.603L322.973 384.418L321.91 371.958L318.738 370.912L314.047 380.219L311.588 383.296L305.273 380.507L284.035 387.98L276.961 379.082L278.099 369.79L271.42 376.581L264.042 372.609L263.298 373.655L263.313 376.884L269.674 380.295L260.126 390.344L254.099 390.284L247.996 384.084L241.089 384.296L240.239 391.663L244.201 396.468L239.526 411.429L234.061 411.854L225.362 417.341L223.237 428.118L230.782 436.183L232.163 434.621L237.461 433.196L241.985 440.806L254.934 435.258L259.959 435.546L263.42 447.778L281.894 453.63L285.082 463.391L292.946 464.331L296.696 473.653L294.16 481.945L297.47 486.28L296.984 492.737L305.849 491.904L313.971 502.151L313.333 509.351L318.146 513.413L306.608 530.86L326.92 542.214Z" fill="#74788D"/>
<path d="M160.42 305.065L160.344 310.598H161.619L165.961 302.503H163.016L160.42 305.065Z" fill="#74788D"/>
<path d="M1091.61 -12.4521L1094.28 -3.23595L1099.62 -1.70498L1104.97 -10.1481L1101.92 -15.9081L1103.06 -20.8951H1111.07L1109.16 -17.0601L1109.92 -3.23595L1098.47 25.1704L1099.61 31.3094L1099.23 41.6775L1120.59 72.7668L1124.78 73.9188L1125.16 48.5896L1129.35 44.7546L1124.76 34.7806L1128.57 30.5515L1120.18 19.4254L1115.59 19.8044L1114.08 1.38727L1125.9 -1.68982L1126.66 -7.07095L1132.76 -8.60192L1136.19 -5.52482L1140.38 -22.411L1147.63 -34.689L1153.35 -37.7661L1158.31 -37.3872V-43.1473L1150.3 -44.6782L1139.23 -53.8944L1144.57 -60.0334L1139.99 -70.4015L1143.8 -74.2365L1148.38 -68.0975L1159.83 -63.8684L1172.42 -62.7164L1173.95 -68.0823L1167.47 -74.6003L1174.71 -84.5744L1158.3 -90.3345L1154.11 -81.8914L1148.76 -88.8035L1118.63 -99.1716L1090.02 -94.1846L1085.83 -91.8806V-89.5765L1091.93 -86.4995L1091.17 -79.2084L1080.1 -83.8165L1055.69 -74.2214L1051.5 -83.0434H1034.71L1027.08 -74.9793L999.995 -81.1183L975.205 -76.1313L972.154 -68.4613L975.964 -67.3093L975.585 -61.5492L951.554 -58.8662L953.087 -51.1962L930.954 -55.0312L936.297 -65.0053L913.785 -66.1573L915.697 -55.7891L908.456 -52.3331L902.354 -58.0932L877.564 -53.864L868.03 -45.042L867.651 -39.676L861.548 -39.2971L860.789 -45.4361L880.251 -62.3223V-73.8424L867.666 -77.2985L851.256 -71.9325L844.394 -78.8446H841.343L837.533 -71.1746L840.584 -67.7186L818.83 -55.8194L800.143 -41.6163L788.697 -25.8822V-19.3642L800.902 -14.3772L794.799 -9.7691L781.835 -14.3772L776.492 -9.7691L768.476 -18.9852L766.943 -15.5292L775.717 12.1041L778.01 12.8771L784.112 9.80003L787.164 12.1041V17.0911L781.441 14.787L778.01 17.47L780.302 22.457L778.389 35.5082L766.563 36.6602L765.804 32.4311L772.666 28.202L774.199 16.6818L766.563 6.70777L763.892 -10.5573L751.687 -12.4824L750.548 -6.34336L752.84 -3.26627L747.876 0.962846L749.789 12.483L757.03 15.5601L758.563 24.0032L751.307 19.3951L732.62 15.9391L730.328 22.0781L715.451 27.4441L713.158 23.6091L693.697 34.3562L693.317 41.6472L685.682 42.7992L687.974 37.4333V32.0673L680.338 29.3843L675.374 31.3094L679.564 39.3735L682.615 44.7395V48.9686L676.892 47.8166L675.754 46.6646L670.03 52.8036L673.082 58.1696L660.117 57.7906L664.307 63.1717L663.169 65.4758H656.307L651.343 62.0197L650.205 52.4246L642.189 49.3475V45.5125L658.979 48.9686L668.133 49.7416L671.943 43.9816L668.512 37.8425L644.102 28.2474L635.677 30.3393L632.792 32.81L633.688 38.4943L637.271 39.1158L636.436 48.0591L647.487 73.9795L639.502 86.6213L638.956 89.4711L643.009 92.3208L639.35 94.7309L636.922 94.7764L637.377 105.918L640.732 110.662L640.777 115.27L645.074 115.664L651.647 118.165L658.599 127.715L658.675 130.231L656.413 134.097L661.605 133.809L666.66 135.264L673.492 144.919L690.312 146.45L689.583 157.94L683.784 162.897L684.983 164.837L679.26 170.976L677.742 176.736L681.173 181.723L692.24 185.558L696.824 182.875L726.198 194.001L727.337 190.924L721.234 185.164V177.873L717.424 176.721L718.183 170.582L724.286 163.291L713.34 155.106L714.1 143.722L725.804 136.037L739.542 136.81L741.834 141.039L755.952 141.812L766.26 136.052L760.916 130.292L762.055 119.545L788.757 106.494L809.297 115.74L816.158 109.601L836.379 128.791L851.635 127.26L856.979 132.626L871.476 134.157L881.01 121.106L893.215 126.487L899.697 127.639L906.179 121.879L900.456 118.044L905.42 110.374L919.538 114.982L922.589 121.121L928.692 121.5L932.502 118.817L942.81 118.438L943.948 121.121L955.774 121.894L963.789 113.451L980.199 115.376L985.163 113.451L986.682 104.235L981.718 93.109L986.682 88.8799H1002.32L1017.19 106.539L1036.26 117.286H1041.98L1042.74 112.678L1049.6 108.449L1050.36 133.399L1044.26 133.778V139.917L1047.69 144.146L1047.05 149.634L1049.59 150.68L1051.12 146.845L1053.42 147.618L1054.93 149.149L1061.79 147.618L1068.66 127.654L1069.42 102.704L1060.64 82.7408L1049.57 69.3108L1044.23 70.0838V74.3129L1031.27 69.3259L1036.23 58.5788L1040.42 30.1725L1057.97 24.8066L1066.36 19.4406H1075.52L1073.23 22.5177L1075.52 26.3527L1083.53 17.9096L1088.12 18.2886L1087.36 13.3015L1080.1 11.7706L1085.07 -6.26757L1091.61 -12.4521Z" fill="#74788D"/>
<path d="M867.59 134.794L862.338 147.981L855.096 147.602L847.461 164.292L853.943 172.538L840.584 190.955L833.722 189.803L829.138 195.563L830.276 199.019L835.62 199.398L838.292 205.537L843.635 206.689L860.045 227.804V238.551L868.061 243.538L876.835 242.007L887.902 248.525L901.26 252.36L907.743 251.587L914.999 250.814L930.255 240.84L935.219 241.613L937.117 246.115L941.322 247.373L947.045 255.816L943.235 264.259L945.527 270.019L952.009 272.323L953.148 279.235L960.783 280.009L961.922 276.552L972.989 270.792L979.85 271.171L987.865 279.993L993.209 277.689L996.64 278.068L998.173 282.297L1000.84 282.676L1004.66 277.31L1019.91 271.55L1033.65 255.043L1038.23 239.309L1037.85 228.941L1032.13 227.789L1035.56 223.954L1034.8 217.815L1020.31 203.233V195.942L1024.5 190.576L1028.69 188.651L1029.07 184.421H1018.38L1016.47 190.182L1011.5 189.03L1005.4 182.512L1009.21 172.538L1014.55 166.777L1019.52 167.156L1018.76 175.978L1021.43 178.282L1027.91 171.764L1030.2 171.386L1029.45 166.399L1035.55 159.107L1040.13 159.486L1042.8 151.043L1045.93 149.391L1046.25 144.131L1043.21 140.948L1042.96 132.641L1048.8 132.262L1048.42 110.844L1044.32 113.3L1042.79 118.787L1035.94 118.772L1016.1 107.631L1001.77 90.3806L987.228 90.229L983.524 93.4425L988.23 104.205L986.59 114.3L980.731 116.725L977.436 116.468L977.194 126.457L980.624 127.23L986.727 124.547L994.742 128.382V132.217L989.019 132.596L984.435 142.57L980.245 142.949L965.368 162.518L949.732 169.43L939.045 170.203L931.804 165.216L921.496 170.597L910.429 167.141L907.758 159.85L889.07 158.698L879.158 142.585H874.968L871.598 135.112L867.59 134.794Z" fill="#74788D"/>
<path d="M872.753 134.945L881.588 123.243L892.199 128.139L899.41 130.065L908.245 121.97L902.249 117.559L906.196 111.996L917.976 116.149L922.059 122.834L929.437 123.031L933.293 120.166L941.232 119.848L942.963 122.789L956.155 123.456L964.504 114.952L976.057 116.165L975.389 127.745L980.444 128.897L986.653 126.078L993.226 129.322L993.074 130.959L988.307 131.095L983.343 141.494L979.487 141.873L964.489 161.442L949.172 168.187L939.593 168.93L931.638 163.807L921.467 169.233L911.448 166.126L908.609 158.865L889.634 157.531L879.918 141.085L875.197 140.781L872.753 134.945Z" fill="#74788D"/>
<path d="M1031.36 171.476L1034.15 172.643L1035 182.405L1040.54 182.723L1045.77 176.615L1043.96 175.008L1044.17 168.46L1048.97 162.669L1046.52 158.273L1048.12 156.454L1049 151.907L1046.22 150.649L1043.85 151.846L1040.92 160.729L1036.19 160.32L1030.71 166.777L1031.36 171.476Z" fill="#74788D"/>
<path d="M1046.63 177.434L1056.01 185.073L1057.61 192.47L1057.29 196.442L1052.7 201.596L1048.76 201.808L1044.28 192.152L1042.58 187.544L1044.38 186.149L1043.96 184.224L1041.73 183.224L1046.63 177.434Z" fill="#74788D"/>
<path d="M725.334 162.912L731.558 160.259L738.511 160.017L738.996 170.628H734.928L731.816 175.69L735.884 182.436L741.881 185.816L742.427 189.681L744.628 188.954L746.663 186.544L750.018 187.271L751.703 190.651H756.014V186.316L753.372 178.601L752.173 172.34L759.839 168.96L770.147 170.643L776.614 177.145L791.233 175.705L799.385 187.271L808.964 187.756L811.605 183.421L814.96 182.693L815.446 177.873L820.47 177.631L823.112 180.768L825.753 174.508L848.509 177.646L852.334 172.583L845.868 164.625L854.49 145.829L861.443 146.314L866.24 134.748L856.661 133.778L851.15 128.473L835.97 130.231L816.417 111.359L809.525 117.468L788.622 107.994L762.982 120.53L762.268 129.443L768.264 136.431L756.576 143.025L741.41 142.691L738.237 138.038L726.351 137.386L715.087 144.616L714.844 154.499L725.334 162.912Z" fill="#74788D"/>
<path d="M751.383 191.667L750.442 195.653H744.142V201.05L750.913 205.506L748.818 211.615V214.434L751.626 214.904L755.36 209.978L763.771 208.098L781.744 214.904L781.972 219.83L792.006 220.77L803.21 209.023L801.813 205.264L794.344 203.626L773.334 189.999L772.393 185.073H764.454L760.947 191.652H757.44L751.383 191.667Z" fill="#74788D"/>
<path d="M804.622 209.053L809.298 209.296V201.307L804.865 198.731L812.334 189.333H815.37L818.406 192.864L826.345 189.818L815.37 186.058L814.945 183.785L812.334 184.421L809.768 188.878L798.702 188.514L790.58 177.039L776.31 178.449L769.509 171.719L760.097 170.127L753.266 172.901L757.228 186.058L757.274 190.485L760.158 190.545L763.695 183.815L773.107 183.936L774.504 189.105L794.679 202.475L802.481 204.263L804.622 209.053Z" fill="#74788D"/>
<path d="M806.55 198.109L812.789 190.378H815.142L815.962 192.106L813.077 194.198V195.926L814.975 197.291L824.098 197.836L827.074 196.563L828.425 196.836L829.336 199.746L834.755 200.292L837.472 206.022L836.653 207.75L835.575 207.841L834.497 205.658L832.144 205.476L828.076 206.022L827.803 209.841L823.734 209.569L823.916 204.748L820.941 201.838L816.417 205.567L816.508 208.022L812.531 209.387H810.178L810.36 200.928L806.55 198.109Z" fill="#74788D"/>
<path d="M816.599 178.964L816.129 182.799L816.508 185.164L829.715 189.59L818.118 194.259L816.797 193.167L814.292 194.774L814.413 195.653L815.749 196.26L823.886 196.472L828.015 195.229L833.313 188.559L839.947 189.711L847.947 178.646L826.543 175.736L823.582 182.905L819.848 178.904L816.599 178.964Z" fill="#74788D"/>
<path d="M782.154 221.164L784.568 240.051L790.579 241.37L791.141 244.766L786.83 248.358L794.86 254.831L810.466 249.222L811.711 242.583L821.533 236.459L825.297 222.271L828.106 219.255L825.191 214.192L834.694 208.326L833.48 206.628L829.092 206.901L828.698 210.933L822.808 210.872L822.702 205.491L820.804 203.232L817.616 206.128L817.707 208.78L812.895 210.599L804.014 210.038L792.477 222.104L782.154 221.164Z" fill="#74788D"/>
<path d="M795.832 255.71L799.779 261.561L799.4 264.577L794.147 266.654L793.768 271.565H799.779L801.844 269.867H813.29L823.613 278.932L824.933 274.582H832.63L832.812 269.11L824.933 261.561L826.618 257.408L834.694 256.847L845.579 234.185L839.567 229.471L837.321 221.543L851.955 220.225L843.317 207.947L838.717 206.704L836.835 208.977L835.423 209.083L826.785 214.556L829.609 219.285L826.421 222.68L822.474 237.217L812.713 243.447L811.392 250.253L795.832 255.71Z" fill="#74788D"/>
<path d="M868.472 351.464L875.424 348.068L879.554 333.153L879.371 314.842L903.023 289.346V283.298L907.896 281.403L907.714 274.415L902.461 264.214L905.467 258.742L912.04 264.79L920.48 265.169V268.564L917.854 271.399L918.416 272.914L922.924 273.096L923.866 278.189H925.186L928.572 272.141L930.257 256.286L935.889 252.315L936.071 246.842L933.824 242.492L930.257 242.31L916.291 251.526L917.171 257.453L907.364 257.423L903.903 253.194L902.021 253.436L902.658 259.318L881.451 257.802L868.305 251.951L867.606 244.751L858.847 239.324L858.741 228.153L852.73 221.286L838.915 222.605L840.418 228.607L847.189 234.079L835.484 257.999L827.651 258.59L826.361 261.47L834.073 268.594L833.693 275.794L825.814 275.673L824.964 279.25L831.507 278.962L831.689 281.797L826.998 284.253L830.004 289.922L835.818 291.817L839.386 289.179L841.071 284.465L843.135 283.525L845.58 285.981L844.836 292.029L843.151 294.863L843.53 299.775L868.472 351.464Z" fill="#74788D"/>
<path d="M868.791 244.675L869.489 251.147L881.755 256.695L901.414 258.151L900.67 253.406L887.538 249.798L876.396 243.174L868.791 244.675Z" fill="#74788D"/>
<path d="M905.542 253.042L907.895 256.256L915.85 256.316L915.045 251.921L905.542 253.042Z" fill="#74788D"/>
<path d="M905.8 260.667L903.811 264.259L908.972 274.051L909.124 281.691L910.065 283.737L916.122 283.843L919.553 280.554L922.043 282.055L922.544 286.708L924.532 285.465L924.654 279.523L922.984 279.326L921.937 274.278L917.716 274.127L916.669 271.323L919.25 267.882L919.295 266.184H911.796L905.8 260.667Z" fill="#74788D"/>
<path d="M957.217 337.276L953.012 330.545L956.063 326.271L953.179 320.981L950.461 320.465L949.945 311.583L945.877 303.716L944.693 305.595L941.975 310.203L938.575 310.719L936.875 308.49L936.025 302.503L933.474 297.713L923.091 287.936L925.641 286.253L926.112 279.175L929.907 272.808L931.546 256.968L937.042 253.224L937.224 247.449L940.518 248.54L945.71 256.043L941.854 264.289L944.45 270.762L950.871 273.278L952.04 280.327L960.663 281.66L958.279 285.768L947.41 290.043L946.226 297.046L954.211 307.293L954.545 312.765L952.678 314.644L952.845 316.357L958.795 325.073L958.963 334.123L957.217 337.276Z" fill="#74788D"/>
<path d="M958.112 286.981L963.031 293.302V300.987L964.731 301.836L972.549 298.077L974.082 298.592L983.418 309.354L983.084 316.706L980.033 316.191L977.315 314.478L975.281 314.645L971.714 320.617L972.397 323.861L975.281 325.392L975.114 328.984L973.08 330.015L966.112 325.225V320.95L963.228 320.784L962.044 322.663L961.437 341.793L965.945 350.009L973.93 357.694L973.596 359.922L969.346 359.755L965.444 353.95H961.361L956.26 349.842L954.727 345.567L956.928 341.975L957.687 338.731L960.086 334.487L959.979 324.725L954.12 316.267L953.877 315.236L955.774 313.326L955.334 306.611L947.531 296.743L948.442 291.059L958.112 286.981Z" fill="#74788D"/>
<path d="M962.181 355.162L965.232 361.999L965.915 370.881L969.999 377.202L979.851 383.174L983.585 383.523L982.902 377.369L979.669 369.517L974.932 359.467L974.538 361.225L968.83 360.968L964.731 355.086L962.181 355.162Z" fill="#74788D"/>
<path d="M973.976 330.94L980.185 337.564L991.737 329.015L992.754 315.524L986.788 319.632L983.691 317.904L979.486 317.343L977.133 315.691L975.995 315.751L972.913 320.799L973.414 323.133L976.541 324.877L976.162 329.621L973.976 330.94Z" fill="#74788D"/>
<path d="M966.37 275.552L962.697 277.416L959.646 286.299L964.746 292.787L963.896 299.956L964.746 300.305L973.232 296.197L984.618 308.9L984.344 316.903L986.819 318.237L992.936 313.28L992.436 309.354L974.781 292.605L974.948 290.043L977.149 288.512L975.615 284.237L968.314 283.04L966.37 275.552Z" fill="#74788D"/>
<path d="M980.929 338.488L982.735 341.323L983.069 344.567L987.821 345.082L993.589 337.397L999.024 335.866L1001.91 328.014L1000.56 315.372L994.956 307.687L989.05 302.973L981.536 290.088L986.925 281.084L979.214 272.247L973.035 271.974L967.479 274.961L969.134 282.1L976.542 283.404L978.53 288.906L975.919 290.604L976.086 291.968L993.468 308.945L994.151 313.932L993.104 329.697L980.929 338.488Z" fill="#74788D"/>
<path d="M693.105 186.468L698.069 192.94L704.263 195.79L708.073 195.775L714.616 194.001L716.255 191.439L696.9 184.209L693.105 186.468Z" fill="#74788D"/>
<path d="M714.752 195.153L722.039 204.642L719.898 207.143L714.737 206.249L708.331 200.519L708.68 196.76L714.752 195.153Z" fill="#74788D"/>
<path d="M717.319 191.864L715.786 194.471L722.936 203.839L725.425 203.036L729.524 207.325L731.3 199.807L735.748 200.519L735.566 198.367L728.249 191.97L726.852 195.729L717.319 191.864Z" fill="#74788D"/>
<path d="M714.646 207.371L712.794 209.296L712.976 212.343L715.284 215.571L723.466 224.515L722.221 228.092H720.794L720.081 231.669L724.711 237.581L728.976 237.945L737.523 249.753L742.32 250.117L746.055 252.8L746.237 258.166L761.007 266.76H766.518L769.903 263.896L774.169 263.714L776.659 269.443L792.613 271.656L793.084 265.805L798.367 263.896L798.61 261.804L794.405 256.074L785.038 248.555L789.957 244.084L789.608 242.113L783.444 241.158L780.833 220.392L780.53 215.617L763.816 209.235L756.408 210.903L752.263 215.981L748.59 215.738L747.527 216.633L739.345 216.102L729.022 208.584L725.181 204.385L723.42 204.809L720.248 208.432L714.646 207.371Z" fill="#74788D"/>
<path d="M698.025 194.092L694.639 197.669L682.191 197.306L674.722 192.834L667.436 192.652L659.071 198.564L651.238 198.928L650.525 203.399H641.629L638.077 206.628V208.417L640.217 210.205V212.176L639.321 214.51L640.217 216.481L643.071 215.056L645.925 218.103L645.211 220.255L644.149 221.695L645.743 223.484L653.576 225.09L659.086 222.756V219.361L661.758 219.891L668.165 223.65L675.102 222.574L678.123 219.709L680.081 220.422V223.65H682.753L685.06 219.179L705.342 217.026L714.192 215.95L711.854 212.888L711.809 208.75L713.585 206.628L707.118 201.444L707.467 196.972H703.915L698.025 194.092Z" fill="#74788D"/>
<path d="M718.2 315.418L720.386 321.906V328.242L725.638 333.001L762.648 317.949L762.998 313.811L757.062 303.17L742.17 307.915L733.623 316.312L723.71 310.461L718.2 315.418Z" fill="#74788D"/>
<path d="M758.26 302.7L769.479 296.242L771.467 286.769L769.008 285.359L770.025 275.203L772.166 273.96L774.458 277.553L788.105 284.677V288.633L771.574 312.932L763.968 313.189L758.26 302.7Z" fill="#74788D"/>
<path d="M751.627 278.599L752.948 283.874L767.916 285.192L768.963 274.369L771.847 272.793L772.637 268.837L767.916 270.155L762.663 278.083L751.627 278.599Z" fill="#74788D"/>
<path d="M749.532 269.625L748.742 275.703L751.08 277.477L753.205 277.28L753.995 269.625L752.158 268.306L749.532 269.625Z" fill="#74788D"/>
<path d="M735.354 251.663L731.938 249.813L729.57 252.193L729.828 256.953L735.339 259.06L735.354 251.663Z" fill="#74788D"/>
<path d="M736.43 260.864L747.072 275.673L750.503 278.401L752.036 285.041L768.416 286.329L770.268 287.299L768.431 295.485L757.668 301.821L741.926 306.58L733.531 314.766L723.557 308.96L717.515 314.235L709.105 300.517L703.337 297.88L701.242 294.712V287.845L680.247 262.501L679.458 258.014H685.499L692.847 251.678L693.105 248.51L691.01 246.403L695.215 242.977L704.141 243.507L719.367 256.18L728.354 255.77L728.931 257.983L736.43 260.864Z" fill="#74788D"/>
<path d="M679.762 224.317L679.23 228.168L683.511 229.956L683.329 240.628L687.61 240.537L691.891 237.308L693.5 237.035L703.216 229.32L705.174 218.118L685.758 220.088L683.709 224.575L679.762 224.317Z" fill="#74788D"/>
<path d="M706.54 218.103L704.172 229.79L694.365 237.945L694.988 241.795L704.567 242.447L719.823 254.846L728.354 254.604L728.582 251.739L731.709 248.389L736.081 250.859L736.658 250.314L728.203 239.082L724.195 238.839L718.867 232.003L719.929 226.97L721.554 226.758L722.115 224.53L714.859 216.905L706.54 218.103Z" fill="#74788D"/>
<path d="M683.147 241.977L679.412 254.982L679.245 256.968H685.12L691.693 251.178L691.86 248.98L689.173 246.236L693.985 242.25L693.287 238.551L691.966 238.854L687.959 241.719L683.147 241.977Z" fill="#74788D"/>
<path d="M679.048 229.335L679.139 232.291L677.895 236.777L682.175 237.141L682.449 230.775L679.048 229.335Z" fill="#74788D"/>
<path d="M677.713 237.854L675.314 245.478L678.426 254.619L681.993 241.264V238.399L677.713 237.854Z" fill="#74788D"/>
<path d="M674.509 225.394L676.376 226.743L670.592 232.215L667.83 232.124L665.78 230.684L666.054 228.001L670.243 227.728L674.509 225.394Z" fill="#74788D"/>
<path d="M632.383 31.8244L635.45 29.581L635.176 27.0648L633.233 25.9431L633.507 22.866H635.176V21.1834L627.935 19.228L617.081 20.3497L615.973 25.1094L613.468 24.2757L611.798 21.4714L606.5 21.7443L605.939 27.0648L603.434 28.1865L602.037 25.3822L590.895 34.3407L593.126 36.8569L588.952 38.8123L579.479 57.5781L576.139 59.8215L576.413 61.504L579.752 63.1866L578.917 66.8245L573.346 66.5365L571.676 64.5811L568.063 68.7799L565.832 70.4625L565.27 74.3884L563.327 75.5101L558.317 76.6318L555.812 84.4837L557.482 97.3681L559.425 103.249L561.657 105.493L566.667 105.22L573.908 98.217L576.686 93.4573L577.521 100.46L582.257 92.0628L582.53 68.5222L586.386 66.0969L587.54 53.1064L599.229 36.2961L604.8 34.3407L607.305 31.2636L615.654 33.219L619.829 35.7352L621.226 28.7322L628.193 24.5334L632.383 31.8244Z" fill="#74788D"/>
<path d="M527.121 102.977L524.343 107.176L525.451 108.858H531.858V111.662L530.188 113.906L531.296 119.787L534.909 126.79L537.687 133.232L542.135 134.915L544.078 138.28L543.805 141.357L541.027 143.04L540.754 144.434L542.697 145.556L541.027 147.799L537.125 149.482L529.611 148.648L517.907 153.969L514.005 152.013L525.148 145.571L523.751 144.737L517.907 144.177L521.52 138.856L522.081 134.369L526.818 133.808L525.983 125.123L520.412 124.85L518.742 122.895L519.015 116.452L515.675 116.725L519.015 105.523L525.148 101.037L527.121 102.977Z" fill="#74788D"/>
<path d="M515.432 121.758L510.423 122.319L510.149 126.805L513.489 129.049L517.102 128.215L518.499 125.699L515.432 121.758Z" fill="#74788D"/>
<path d="M517.087 129.458L515.706 138.553L503.455 143.04H499.553L496.775 141.084V139.402L502.908 135.476L501.238 132.111L501.512 127.351L506.81 127.624L509.239 121.924L508.92 126.987L513.034 130.246L517.087 129.458Z" fill="#74788D"/>
<path d="M605.453 35.5232L608.428 38.2668H614L617.066 44.1481L617.901 54.2283L610.387 59.5488V64.8693L605.089 72.1603L602.022 72.4332L597.847 79.4362L598.121 86.1664L605.362 91.4869L604.8 94.564L602.022 98.7628L597.847 102.401L598.121 114.451L591.715 116.695L589.483 121.455H586.417L584.747 113.057L577.779 102.386L583.502 92.8208L583.897 69.1894L587.844 67.0217L588.8 53.5007L600.049 37.418L605.453 35.5232Z" fill="#74788D"/>
<path d="M619.221 54.2587L622.364 55.6381L624.307 59.276L622.364 61.7923L612.618 72.4333L610.948 78.0418L613.179 86.1665L620.694 91.775L630.713 87.0154L638.789 85.8937L646.303 73.843L640.732 60.6706L635.434 48.059L636.269 39.9343L632.929 39.3734L632.064 33.4466L627.57 26.1252L622.591 29.5661L620.633 37.5545L615.35 34.3864L608.003 32.5978L606.363 34.5077L609.187 37.0542L614.333 36.9633L618.477 43.648L619.221 54.2587Z" fill="#74788D"/>
<path d="M636.345 106.448L625.946 104.766L626.174 110.571L635.814 116.453L639.761 115.301L639.533 110.874L636.345 106.448Z" fill="#74788D"/>
<path d="M619.176 100.794L616.823 100.718L615.457 102.098L616.444 103.553L618.797 103.704L620.011 101.946L619.176 100.794Z" fill="#74788D"/>
<path d="M618.948 106.979L616.671 106.751L612.572 111.647V113.936L613.939 114.467L616.595 114.542L620.998 110.95L621.605 109.722L618.948 106.979Z" fill="#74788D"/>
<path d="M625.324 111.496L622.06 111.42L617.582 115.695H613.787L614.014 121.045L611.737 125.244L619.935 125.32L622.288 125.017L624.641 127.851L630.03 127.624L635.191 121.06L634.888 117.165L625.324 111.496Z" fill="#74788D"/>
<path d="M625.096 129.064L627.373 132.808L626.462 135.794L626.614 138.159L627.449 140.994L632.155 138.326L638 138.477L642.098 140.16H652.497L655.533 132.899L657.355 130.155V128.321L650.827 119.151L645.059 116.862L640.353 116.331L636.254 117.635L636.406 121.758L630.713 128.943L625.096 129.064Z" fill="#74788D"/>
<path d="M626.311 141.903L627.601 144.267L627.905 146.784L626.842 149.224L624.413 153.893L622.364 154.817L619.707 153.665L618.113 153.741L614.242 155.196L609.84 153.893L602.705 148.845L595.722 145.101L592.914 140.826L592.382 130.746L597.847 126.002L604.982 123.637L607.639 123.334L606.576 125.471L607.259 126.305L619.267 126.532L621.848 126.457L626.098 132.959L625.036 135.627L625.491 138.765L626.311 141.903Z" fill="#74788D"/>
<path d="M530.522 187.741H511.182L507.281 185.983L505.398 186.119L503.121 190.848L503.926 195.714L511.319 196.396L512.26 199.504L509.041 217.618L509.178 220.862L514.415 223.696L520.457 224.105L532.541 221.134L538.446 213.707L538.583 206.143L549.057 196.684L549.589 192.501L540.055 192.364L530.522 187.741Z" fill="#74788D"/>
<path d="M504.062 197.2L503.121 210.311L500.434 212.737L500.707 214.222L502.589 217.33L501.375 221.119L503.394 221.801L508.1 221.256L507.827 217.466L510.908 199.898L510.24 197.473L504.062 197.2Z" fill="#74788D"/>
<path d="M549.862 206.249L547.448 207.068L547.98 209.235H551.471L552.944 207.613L549.862 206.249Z" fill="#74788D"/>
<path d="M574.849 200.443L570.826 202.475L571.358 210.311L574.576 210.857L576.989 208.553V201.125L574.849 200.443Z" fill="#74788D"/>
<path d="M575.258 190.712L572.298 193.683L572.025 196.381L574.439 197.867L575.38 197.73L575.911 193.804L575.258 190.712Z" fill="#74788D"/>
<path d="M548.8 147.875L545.445 148.694L538.735 155.985L536.716 156.121L534.029 154.226L532.283 154.636L530.947 158.819L521.141 159.092L521.414 161.26L528.124 165.716L535.911 171.931L535.775 179.359L531.615 186.65L540.617 190.97L549.756 191.243L552.58 187.999L558.348 188.135L559.957 189.621L565.726 189.211L568.686 185.422L564.921 180.965L564.648 178.131L565.453 175.023L563.57 172.325L560.352 173.265L559.942 170.84L567.062 163.003V158.274L562.356 155.576L559.942 155.166L548.8 147.875Z" fill="#74788D"/>
<path d="M563.509 132.065L556.632 135.446L558.089 136.764L558.241 140.145L556.784 139.857L555.175 137.356L551.334 143.434L557.239 144.662L559.44 146.981L560.609 147.011L561.384 141.767L565.103 140.205L563.509 132.065Z" fill="#74788D"/>
<path d="M550.637 144.571L549.665 146.996L560.109 153.878L563.115 154.59L563.221 151.331L560.595 148.39H558.986L556.785 145.889L550.637 144.571Z" fill="#74788D"/>
<path d="M565.103 131.474L570.523 130.595V126.775L575.062 126.032L577.551 128.533L580.177 128.821L584.276 127.048L587.935 128.079L591.153 130.868L591.593 141.312L594.811 145.586L590.576 146.177L583.547 150.588L584.139 152.059L590.424 157.94L589.984 160.881L584.139 163.821L578.72 163.973L577.399 166.762H574.621L573.301 163.821L568.473 162.639L568.321 157.788L564.223 154.999L564.663 151.468L561.885 147.648L562.613 142.646L566.409 140.872L565.103 131.474Z" fill="#74788D"/>
<path d="M573.649 106.645L567.349 113.603L567.122 118.135L569.991 125.608L574.484 124.759L573.923 118.65L577.019 115.194L576.959 112.481L574.773 106.827L573.649 106.645Z" fill="#74788D"/>
<path d="M580.74 118.984L579.328 118.923L577.476 120.621L577.704 123.273L582.091 123.395L582.319 120.393L580.74 118.984Z" fill="#74788D"/>
<path d="M606.622 104.629L603.418 107.161L605.028 110.874L607.866 108.116L606.622 104.629Z" fill="#74788D"/>
<path d="M567.79 164.064L561.171 171.097L561.308 171.81L564.025 170.961L566.469 174.356L570.598 172.901L573.452 175.114L574.621 174.447L578.143 168.93L577.247 168.081L573.771 167.99L572.086 164.549L567.79 164.064Z" fill="#74788D"/>
<path d="M591.351 157.228H595.86H598.076L601.674 159.789L608.338 154.257L601.871 149.649L595.465 146.556L591.078 147.345L585.127 151.164L591.351 157.228Z" fill="#74788D"/>
<path d="M602.599 160.653L603.647 161.578L603.783 163.154L615.366 162.897L623.928 159.213L623.791 155.469L622.152 156.197L619.799 154.939L618.357 154.878L614.561 156.394L609.4 155.151L602.599 160.653Z" fill="#74788D"/>
<path d="M579.509 165.186L578.522 167.232L579.373 168.687L582.91 167.96H585.915L589.179 170.718L596.117 169.46L601.217 166.429L602.523 164.382L602.326 161.745L597.741 158.319L591.593 158.38L591.077 161.866L584.61 165.019L579.509 165.186Z" fill="#74788D"/>
<path d="M603.965 164.398L602.204 167.156L602.341 171.37L605.149 172.81L613.787 173.068L625.825 162.942L625.886 160.699L624.58 160.047L615.882 163.988L603.965 164.398Z" fill="#74788D"/>
<path d="M601.02 168.02L597.164 170.324L589.969 171.901L591.411 176.054L596.451 176.115L601.096 172.234L601.02 168.02Z" fill="#74788D"/>
<path d="M602.265 172.825L596.906 177.236H591.472L590.819 181.056L593.308 181.708L594.553 179.859L596.512 181.572L598.075 187.029L608.808 192.031L609.871 190.818L598.986 179.601L600.094 177.555L610.432 177.161L611.48 173.871L604.739 174.068L602.265 172.825Z" fill="#74788D"/>
<path d="M601.02 178.555L600.458 179.48L610.644 189.969L614.379 184.482L614.242 182.314L610.978 178.358L601.02 178.555Z" fill="#74788D"/>
<path d="M566.819 175.584L565.877 177.964L566.136 180.556L569.764 184.785L575.472 184.588L588.071 199.201L595.935 201.474L600.58 205.855L601.688 215.844L604.178 214.389L606.334 208.947L605.802 205.036L609.491 204.703L610.023 202.49L599.624 197.518L589.756 187.832L585.825 182.042L584.868 176.539L589.893 175.342L588.603 171.719L585.521 169.127L582.864 169.006L579.16 170.021L575.669 174.902L573.559 176.297L570.295 174.296L566.819 175.584Z" fill="#74788D"/>
<path d="M597.437 215.056L595.236 213.874L587.722 215.056L587.98 217.087L594.735 220.483L595.752 221.589L597.528 221.847L597.437 215.056Z" fill="#74788D"/>
<path d="M597.696 226.349L595.161 226.864L595.252 229.668L597.529 230.426L598.546 229.577L597.696 226.349Z" fill="#74788D"/>
<path d="M632.55 139.462L628.147 141.933L629.24 146.602L625.172 155.166L625.202 158.94L627.115 160.153L639.381 160.759L642.812 157.925L646.485 159.152L651.753 166.171L647.897 173.083L652.482 174.417L658.478 167.52L661.909 168.141L665.097 170.354L662.288 174.053L666.083 179.965H670.121L672.201 176.023L676.482 175.159L676.604 171.961L668.649 170.733L668.892 167.292H676.604L684.923 160.638L688.596 157.44L689.203 147.344L672.808 145.874L666.083 136.4L661.438 134.809L655.806 135.051L653.271 141.311L641.734 141.463L637.984 139.735L632.55 139.462Z" fill="#74788D"/>
<path d="M640.413 161.532L645.119 168.763L644.724 172.856L646.409 172.931L650.402 166.186L645.605 160.244L642.888 159.122L640.413 161.532Z" fill="#74788D"/>
<path d="M627.405 161.366L627.01 163.61L618.221 170.916L625.568 181.678L630.274 184.967H638.745L641.538 182.633L645.288 182.148L648.081 183.831L653.03 178.207L652.073 175.387L647.048 174.099L643.618 173.932L643.785 169.112L639.23 161.957L627.405 161.366Z" fill="#74788D"/>
<path d="M616.355 191.148L616.287 189.73L614.283 186.921L611.039 191.501L611.677 193.425L614.318 193.911L616.355 191.148Z" fill="#74788D"/>
<path d="M617.341 171.884L614.228 174.22H612.71L611.678 177.432L615.351 181.693L615.594 185.074L615.076 185.805L617.56 189.289L617.646 191.137L619.434 192.866L625.263 191.092L624.777 182.815L617.341 171.884Z" fill="#74788D"/>
<path d="M626.281 183.785L626.524 191.334L629.074 196.639L638.653 196.806L642.964 193.759L647.2 192.076L646.167 187.256L647.124 184.679L644.968 183.558L642.008 183.8L639.685 186.135L629.939 186.21L626.281 183.785Z" fill="#74788D"/>
<path d="M615.016 194.956V201.944L617.02 205.718L618.462 205.552L620.937 201.05L619.494 199.034L618.933 194.046L617.02 192.273L615.016 194.956Z" fill="#74788D"/>
<path d="M625.491 192.304L620.375 193.986L620.618 198.321L621.818 199.852L627.89 197.033L625.491 192.304Z" fill="#74788D"/>
<path d="M619.101 206.84L618.934 208.856L625.963 212.388L629.318 213.676L627.557 215.526L623.64 215.92L623.078 217.693L624.429 220.74L628.817 223.074L630.729 223.241L630.972 218.012L633.841 214.556L626.008 205.309L627.04 202.171L628.877 202.096L631.671 204.339L633.431 203.46L633.993 200.322L642.221 200.398L642.54 195.578L639.109 197.988L629.044 197.745L622.502 201.126L619.101 206.84Z" fill="#74788D"/>
<path d="M643.859 194.865L643.616 200.246L648.322 198.806L650.478 197.366L649.84 195.032L647.609 193.259L643.859 194.865Z" fill="#74788D"/>
<path d="M634.356 226.53L636.831 226.606L637.863 228.137H641.461L643.859 227.258L644.664 228.228L643.07 230.32L636.041 230.562L634.766 228.88L633.415 228.077L634.356 226.53Z" fill="#74788D"/>
<rect x="668" y="58" width="83" height="34" fill="#D9D9D9"/>
</g>
</mask>
<g mask="url(#mask0_6621_5642)">
<path d="M0 220C0 98.4973 98.4974 0 220 0H980C1101.5 0 1200 98.4974 1200 220V470C1200 569.411 1119.41 650 1020 650H180C80.5887 650 0 569.411 0 470V220Z" fill="url(#paint0_linear_6621_5642)"/>
</g>
</g>
<defs>
<linearGradient id="paint0_linear_6621_5642" x1="600" y1="0" x2="600" y2="650" gradientUnits="userSpaceOnUse">
<stop stop-color="#414459" stop-opacity="0"/>
<stop offset="0.0591674" stop-color="#414459"/>
<stop offset="0.932542" stop-color="#414459"/>
<stop offset="1" stop-color="#414459" stop-opacity="0"/>
</linearGradient>
<clipPath id="clip0_6621_5642">
<rect width="1200" height="650" fill="white"/>
</clipPath>
<clipPath id="clip1_6621_5642">
<rect width="1200" height="776.042" fill="white" transform="translate(0 -123)"/>
</clipPath>
</defs>
</svg>